<?xml version="1.0" encoding="utf-8"?>
<svg xmlns="http://www.w3.org/2000/svg" viewBox="50.1884 50.4335 185.6125 184.8829" width="24px" height="23.905645961376px" preserveAspectRatio="none" xmlns:bx="https://boxy-svg.com"><defs><clipPath clipPathUnits="userSpaceOnUse" id="clipPath2"><path style="fill:#000000;stroke-width:0.992182" d="m 53.725125,178.05357 v -24.69445 h 91.856275 91.85628 v 24.69445 24.69444 H 145.5814 53.725125 Z" id="path2"/></clipPath><bx:export><bx:file format="svg" width="24" height="23.905645961376"/></bx:export></defs><g id="g22"><g id="g5" transform="translate(-1.6214425,1.8136036)"><g id="g4"><g id="g33" transform="matrix(0.99116318,0,0,0.99116318,0.23033974,4.9123932)" style="display:inline"><circle style="font-variation-settings: &quot;wght&quot; 700; display: inline; fill-opacity: 1; stroke-width: 2.87175; stroke-linecap: square; stroke-linejoin: bevel; fill: rgb(136, 132, 132);" id="path30" cx="145.55232" cy="137.36285" r="93.265625"/><circle style="font-variation-settings:'wght' 700;display:none;fill:#ff5a00;fill-opacity:1;stroke-width:2.66808;stroke-linecap:square;stroke-linejoin:bevel" id="circle30" cx="145.55232" cy="137.36285" r="86.651039"/></g><g id="g348" transform="matrix(0.99116318,0,0,0.99116318,-5.7128582,0.73225881)" style="display:inline"><path style="fill:#ffffff;stroke-width:1.26193" d="m 89.992968,86.3731 c 1.96932,-2.04289 6.267697,-5.99231 8.557684,-7.86293 2.226168,-1.8185 9.604188,-6.63415 11.376258,-7.4253 1.95712,-0.87378 2.57037,-1.76429 2.14277,-3.11156 -0.53499,-1.68558 -2.20861,-1.4796 -6.20514,0.76368 -6.679616,3.74931 -17.631782,12.69812 -20.041092,16.37518 -1.14055,1.74071 -0.46441,3.05664 1.72102,3.34951 0.21195,0.0284 1.31377,-0.91146 2.4485,-2.08858 z" id="path251"/><path style="fill:#ffffff;stroke-width:1.26193" d="m 81.779898,96.86647 c 1.617,-2.35692 1.7059,-2.64003 1.15321,-3.67274 -0.40545,-0.7576 -0.97513,-1.11896 -1.764,-1.11896 -0.92354,0 -1.50795,0.52056 -2.81844,2.51051 -1.75491,2.664795 -1.99327,3.649165 -1.09995,4.542475 1.15762,1.157625 2.71807,0.37854 4.52918,-2.261285 z" id="path250"/><path style="fill:#ffffff;stroke-width:1.26193" d="m 89.923588,86.68163 c 4.471964,-4.85442 15.377442,-13.16216 20.006742,-15.24103 2.04256,-0.91724 2.88753,-2.24767 2.35011,-3.70035 -0.61195,-1.65414 -1.98028,-1.68743 -4.99487,-0.12149 -3.4224,1.77777 -8.517997,5.17869 -12.335741,8.23317 -3.553191,2.84281 -10.239161,9.67124 -10.239161,10.45733 0,0.9606 1.41017,2.20406 2.49956,2.20406 0.63157,0 1.67468,-0.70416 2.71336,-1.83169 z" id="path262"/><path style="fill:#ffffff;stroke-width:1.26193" d="m 81.194288,98.196005 c 0.76243,-1.04061 1.59042,-2.327985 1.84002,-2.860845 0.68571,-1.46392 0.0719,-3.19917 -1.24875,-3.53065 -1.41897,-0.35614 -2.7229,0.7918 -4.40044,3.87401 -1.14379,2.101525 -1.17067,2.282225 -0.49327,3.316075 1.12727,1.720425 2.66613,1.434795 4.30244,-0.79859 z" id="path261"/><path style="fill:#ffffff;stroke-width:1.26193" d="m 92.662688,84.3954 c 5.53636,-5.27188 10.508132,-9.04854 15.738202,-11.95507 4.17696,-2.3213 5.13834,-3.69355 3.70061,-5.28222 -1.22353,-1.35199 -2.32763,-1.1274 -6.7086,1.36462 -7.944385,4.51901 -20.682232,15.40841 -20.682232,17.68094 0,1.12578 1.46082,2.75483 2.47036,2.75483 0.37929,0 2.84604,-2.0534 5.48166,-4.5631 z" id="path273"/><path style="fill:#ffffff;stroke-width:1.26193" d="m 81.878168,97.573925 c 1.6825,-2.630175 1.98604,-4.150865 1.05291,-5.275195 -0.67516,-0.81351 -2.25828,-0.86963 -3.17861,-0.11267 -0.91993,0.75663 -3.50025,4.943815 -3.50025,5.679975 0,1.05642 1.44026,2.221985 2.74563,2.221985 1.05929,0 1.54107,-0.420535 2.88032,-2.514095 z" id="path272"/><path style="stroke-width: 1.26193;" d="m 91.363798,85.91389 c 5.290647,-5.51971 10.048522,-9.19428 17.386642,-13.42797 6.59172,-3.803053 6.38823,-10.026521 -4.72845,-3.30226 -6.678316,4.03956 -11.431102,7.82423 -16.726922,13.31972 -2.72765,2.83049 -3.24133,4.39906 -1.88483,5.75555 1.43446,1.43447 2.87461,0.86722 5.95356,-2.34504 z" id="path284"/><path style="stroke-width: 1.26193;" d="m 80.104928,99.878625 c 1.27844,-0.89545 3.71538,-4.777765 3.71538,-5.919015 0,-1.4135 -1.24554,-2.39773 -2.83824,-2.24277 -1.12408,0.10937 -1.70872,0.60517 -3.04684,2.58383 -1.91655,2.833995 -2.12938,4.533845 -0.6936,5.539515 1.2278,0.859975 1.68168,0.866065 2.8633,0.0384 z" id="path283"/></g><g id="g10" style="display:inline" transform="matrix(1.0039461,0,0,1,-0.45055599,0)"><g id="g9" transform="matrix(0.99116319,0,0,0.99116319,0.23033974,4.9123931)" style="display:inline;fill:#000000" clip-path="url(#clipPath2)"><circle style="font-variation-settings: &quot;wght&quot; 700; display: inline; fill-opacity: 1; stroke-width: 2.87175; stroke-linecap: square; stroke-linejoin: bevel;" id="circle7" cx="145.55232" cy="137.36285" r="93.265625"/><circle style="font-variation-settings:'wght' 700;display:none;fill:#000000;fill-opacity:1;stroke-width:2.66808;stroke-linecap:square;stroke-linejoin:bevel" id="circle8" cx="145.55232" cy="137.36285" r="86.651039"/></g><path id="path9" style="font-size: 47.2722px; line-height: 1; font-family: Inter; font-variation-settings: &quot;wght&quot; 800; letter-spacing: 0.264583px; word-spacing: -10.5833px; display: inline; stroke-width: 2.01108; stroke-linecap: square; stroke-linejoin: bevel; fill: rgb(136, 132, 132);" d="m 79.980514,198.55046 v -34.07597 h 13.988082 q 3.767282,0 6.306104,1.08151 2.55519,1.08151 3.83279,3.02824 1.29398,1.94672 1.29398,4.50907 0,1.94672 -0.80259,3.47748 -0.8026,1.51411 -2.21123,2.51244 -1.40864,0.99832 -3.259516,1.39764 v 0.33277 q 2.031056,0.0998 3.750896,1.11479 1.73623,1.01497 2.78451,2.82858 1.04829,1.79697 1.04829,4.2595 0,2.74537 -1.37588,4.9084 -1.37587,2.14638 -3.98021,3.39429 -2.604333,1.23126 -6.322477,1.23126 z m 8.107846,-6.63883 h 5.012124 q 2.637097,0 3.881939,-1.01495 1.261219,-1.01496 1.261219,-2.82857 0,-1.31446 -0.60604,-2.26287 -0.606041,-0.96503 -1.719847,-1.48085 -1.113804,-0.53243 -2.669855,-0.53243 h -5.15954 z m 0,-13.4274 h 4.48798 q 1.326738,0 2.358645,-0.44924 1.031908,-0.44925 1.605191,-1.29781 0.589661,-0.84858 0.589661,-2.04655 0,-1.71379 -1.195703,-2.69547 -1.195702,-0.98169 -3.226758,-0.98169 H 88.08836 Z m 33.94825,-18.04552 -0.97961,29.16576 h -8.75255 l -0.9796,-29.16576 z m -5.36652,42.63004 q -2.27865,0 -3.91843,-1.55989 -1.61847,-1.55989 -1.61847,-3.77656 0,-2.17564 1.61847,-3.715 1.63978,-1.5599 3.91843,-1.5599 2.19345,0 3.85454,1.5599 1.68235,1.53935 1.68235,3.715 0,1.47779 -0.78795,2.68874 -0.76663,1.21097 -2.02308,1.92933 -1.23516,0.71836 -2.72586,0.71838 z m 30.42556,-38.59426 h 8.09146 v 21.97967 q 0,3.81025 -1.78536,6.63882 -1.78537,2.81194 -4.97936,4.35933 -3.19401,1.53075 -7.41992,1.53075 -4.27503,0 -7.46904,-1.53075 -3.194,-1.54739 -4.96298,-4.35933 -1.76899,-2.82857 -1.76899,-6.63882 v -21.97967 h 8.10785 v 21.26421 q 0,1.76368 0.75345,3.1447 0.76984,1.38101 2.14572,2.16302 1.37588,0.78202 3.19399,0.78202 1.81813,0 3.17763,-0.78202 1.37587,-0.78201 2.14571,-2.16302 0.76984,-1.38101 0.76984,-3.1447 z m 13.42722,34.07596 v -34.07596 h 13.85705 q 3.76729,0 6.50266,1.381 2.75175,1.36437 4.24228,3.92672 1.49054,2.54571 1.49054,6.03983 0,3.54403 -1.52329,6.0232 -1.52329,2.46251 -4.32419,3.76033 -2.80089,1.28118 -6.63369,1.28118 h -8.76302 v -6.48908 h 7.25611 q 1.8345,0 3.06296,-0.48251 1.24484,-0.49916 1.88364,-1.49748 0.63881,-1.01496 0.63881,-2.59564 0,-1.58067 -0.63881,-2.61227 -0.6388,-1.04824 -1.88364,-1.56404 -1.24484,-0.53243 -3.06296,-0.53243 h -3.9966 v 27.43715 z m 18.88556,-15.57379 8.35353,15.57379 h -8.84492 l -8.18974,-15.57379 z m 10.80647,-11.81344 v -6.68873 h 28.35289 v 6.68873 h -10.17167 v 27.38723 h -7.99319 v -27.38723 z"/></g></g></g><g id="g21"><path style="stroke-width: 3.85111;" d="m 98.573094,96.465357 c 0,-0.523356 1.15291,-2.323554 1.737976,-3.334281 0.33505,-0.578706 1.53584,-1.966032 2.27464,-2.692995 2.31849,-2.281366 4.58247,-2.956006 7.90235,-2.956006 2.82957,0 5.42105,0.613485 7.49251,2.288015 1.16,0.937753 2.38748,2.46994 2.96817,3.854272 0.29577,0.976644 0.46395,2.608466 0.2692,2.608466 -0.067,0 -0.32888,-0.170987 -0.58237,-0.380094 -1.57921,-1.303072 -3.48069,-2.277472 -5.67783,-2.909635 -1.12902,-0.325031 -1.65459,-0.373548 -3.91273,-0.363536 -2.28859,0.01155 -2.80052,0.06392 -4.17462,0.440217 -1.92664,0.527296 -4.02626,1.427149 -6.34481,2.719263 -0.970336,0.540729 -1.806566,0.983195 -1.858326,0.983195 -0.0517,0 -0.094,-0.115477 -0.094,-0.256496 z" id="path17"/><path style="stroke-width: 3.85111;" d="m 164.01199,96.465357 c 0,-0.523356 1.15291,-2.323554 1.73797,-3.334281 0.33505,-0.578706 1.53584,-1.966032 2.27464,-2.692995 2.31849,-2.281366 4.58247,-2.956006 7.90235,-2.956006 2.82957,0 5.42105,0.613485 7.49251,2.288015 1.16,0.937753 2.38748,2.46994 2.96817,3.854272 0.29577,0.976644 0.46395,2.608466 0.2692,2.608466 -0.067,0 -0.32888,-0.170987 -0.58237,-0.380094 -1.57921,-1.303072 -3.48069,-2.277472 -5.67783,-2.909635 -1.12902,-0.325031 -1.65459,-0.373548 -3.91273,-0.363536 -2.28859,0.01155 -2.80052,0.06392 -4.17462,0.440217 -1.92664,0.527296 -4.02626,1.427149 -6.34481,2.719263 -0.97033,0.540729 -1.80656,0.983195 -1.85832,0.983195 -0.0517,0 -0.094,-0.115477 -0.094,-0.256496 z" id="path18"/><g id="g11"><ellipse style="font-variation-settings: &quot;wght&quot; 700; stroke-width: 0.739968; stroke-linecap: round;" id="path1" cx="109.93734" cy="126.95145" rx="18.90457" ry="22.540066"/><ellipse style="font-variation-settings: &quot;wght&quot; 700; stroke-width: 0.997331; stroke-linecap: round; fill: rgb(136, 132, 132);" id="ellipse3" cx="109.93734" cy="126.95145" rx="16.141596" ry="20.067928"/><ellipse style="font-variation-settings: &quot;wght&quot; 700; stroke-width: 0.857656; stroke-linecap: round;" id="path3" cx="109.93736" cy="133.49535" rx="13.087779" ry="14.832817"/><ellipse style="font-variation-settings: &quot;wght&quot; 700; stroke-width: 0.537979; stroke-linecap: round; fill: rgb(136, 132, 132);" id="path4" cx="115.60873" cy="123.89764" rx="6.2530503" ry="6.1076307"/></g><g id="g14" transform="translate(65.438898,0.29083955)"><ellipse style="font-variation-settings: &quot;wght&quot; 700; stroke-width: 0.739968; stroke-linecap: round;" id="ellipse11" cx="109.93734" cy="126.95145" rx="18.90457" ry="22.540066"/><ellipse style="font-variation-settings: &quot;wght&quot; 700; stroke-width: 0.997331; stroke-linecap: round; fill: rgb(136, 132, 132);" id="ellipse12" cx="109.93734" cy="126.95145" rx="16.141596" ry="20.067928"/><ellipse style="font-variation-settings: &quot;wght&quot; 700; stroke-width: 0.857656; stroke-linecap: round;" id="ellipse13" cx="109.93736" cy="133.49535" rx="13.087779" ry="14.832817"/><ellipse style="font-variation-settings: &quot;wght&quot; 700; stroke-width: 0.537979; stroke-linecap: round; fill: rgb(136, 132, 132);" id="ellipse14" cx="115.60873" cy="123.89764" rx="6.2530503" ry="6.1076307"/></g></g></g></svg>