<svg width="24" height="24" viewBox="545 240 2210 2150" xmlns="http://www.w3.org/2000/svg">
  <defs>
    <mask id="face-mask" maskUnits="userSpaceOnUse" x="545" y="240" width="2210" height="2150">
      <rect x="545" y="240" width="2210" height="2150" fill="white"/>
      <ellipse cx="1386.02" cy="1082.92" rx="127.573" ry="183.936" fill="black"/>
      <ellipse cx="1916.58" cy="1082.92" rx="127.573" ry="183.936" fill="black"/>
      <path d="M1582.41,888.677c-0,-0 -14.365,-38.889 -50.928,-85.088c-9.545,-12.061 -21.011,-24.097 -34.072,-35.944c-11.784,-10.689 -25.185,-20.786 -39.746,-30.284c-49.581,-32.341 -113.391,-56.994 -190.334,-59.755c-21.921,-1.165 -40.663,15.687 -41.827,37.607c-1.165,21.921 15.687,40.663 37.607,41.827c46.863,3.416 86.622,17.846 120.339,35.775c20.969,11.15 39.371,24.053 55.876,36.743c8.035,6.178 15.702,12.13 22.953,17.96c44.832,36.044 71.052,67.896 71.052,67.896c7.379,13.544 24.365,18.549 37.909,11.171c13.543,-7.378 18.549,-24.364 11.171,-37.908l-0,-0Z" fill="black"/>
      <path d="M1767.13,915.414c0,-0 26.221,-31.852 71.053,-67.896c7.251,-5.83 14.918,-11.782 22.953,-17.96c16.504,-12.69 34.907,-25.593 55.875,-36.743c33.717,-17.929 73.476,-32.359 120.339,-35.775c21.921,-1.164 38.772,-19.906 37.608,-41.827c-1.165,-21.92 -19.907,-38.772 -41.827,-37.607c-76.943,2.761 -140.753,27.414 -190.335,59.755c-14.56,9.498 -27.962,19.595 -39.746,30.284c-13.061,11.847 -24.526,23.883 -34.072,35.944c-36.563,46.199 -50.927,85.088 -50.927,85.088c-7.379,13.544 -2.373,30.53 11.171,37.908c13.544,7.378 30.53,2.373 37.908,-11.171l0,-0Z" fill="black"/>
    </mask>
  </defs>

  <g id="Blurt-Logo" mask="url(#face-mask)">
    <circle cx="1650.86" cy="1275" r="1025.3" fill="#808080"/>
    <circle cx="1650.86" cy="1275" r="928.701" fill="#808080"/>
  </g>

  <rect x="548.557" y="1429.18" width="2207.05" height="585.362" fill="#000000"/>
  <text x="1652.08" y="1909.01" text-anchor="middle"
        style="font-family:'Montserrat-ExtraBold','Montserrat';font-weight:800;font-size:541.667px;fill:#808080;">
    B!#RT
  </text>
</svg>
