<?xml version="1.0" encoding="utf-8"?>
<svg xmlns="http://www.w3.org/2000/svg" viewBox="86.9877 123.0949 6.35 5.591" width="24px" height="21.131338582677px"><g id="layer1" transform="matrix(1, 0, 0, 1, 0, 7.105427357601002e-15)"><path d="m 88.364143,123.47127 c 0.728012,0.54654 1.511072,1.65471 1.798572,2.24942 0.287522,-0.59467 1.070538,-1.70289 1.798573,-2.24942 0.525295,-0.39437 1.376409,-0.69951 1.376409,0.27146 0,0.19391 -0.111179,1.62898 -0.176387,1.86196 -0.22666,0.80999 -1.052605,1.01658 -1.787295,0.89154 1.284225,0.21858 1.61092,0.94256 0.905384,1.66654 -1.339952,1.37499 -1.9259,-0.34499 -2.076109,-0.78571 -0.02752,-0.0808 -0.0404,-0.11859 -0.04059,-0.0864 -2.07e-4,-0.0321 -0.01307,0.006 -0.04059,0.0864 -0.150144,0.44072 -0.736081,2.16074 -2.076109,0.78571 -0.705547,-0.72398 -0.378863,-1.44801 0.905384,-1.66654 -0.734712,0.12504 -1.560667,-0.0815 -1.787295,-0.89154 -0.06521,-0.233 -0.176387,-1.66807 -0.176387,-1.86196 0,-0.97097 0.851136,-0.66583 1.376409,-0.27146 z" id="path824" style="stroke-width: 0.0109482; fill: #808080"/></g></svg>