<?xml version="1.0" encoding="utf-8"?>
<svg xmlns="http://www.w3.org/2000/svg" viewBox="0.4928 39.0131 6.35 5.4829" width="24px" height="20.722771653543px"><defs><style id="style972">.cls-1{fill:#e31337;}</style><style id="style1253">.cls-1{fill:#e31337;}</style></defs><g id="layer1" transform="matrix(1, 0, 0, 1, 0, 7.105427357601002e-15)"><g id="Layer_1-2" data-name="Layer 1" transform="matrix(0.02885688,0,0,0.02885688,0.49293685,39.013207)" style="fill:#808080"><path class="cls-1" d="m 157.27,107.26 a 1,1 0 0 1 0.82,1.42 l -46.75,80.85 A 1,1 0 0 1 110.52,190 H 81.94 a 0.94,0.94 0 0 1 -0.81,-1.42 l 46.75,-80.85 a 0.94,0.94 0 0 1 0.81,-0.47 z M 129.48,84.09 a 1,1 0 0 1 -0.82,-0.47 L 81.13,1.42 A 0.94,0.94 0 0 1 81.94,0 h 28.58 a 1,1 0 0 1 0.82,0.47 l 47.53,82.2 a 0.94,0.94 0 0 1 -0.81,1.42 z" id="path1259" style="fill:#808080"/><path class="cls-1" d="M 135.13,1.42 A 0.94,0.94 0 0 1 136,0 h 28.62 a 0.93,0.93 0 0 1 0.81,0.47 l 54.49,94.06 a 0.93,0.93 0 0 1 0,0.94 l -54.49,94.06 A 0.93,0.93 0 0 1 164.62,190 H 136 a 0.94,0.94 0 0 1 -0.82,-1.42 L 189.34,95 Z m -23.26,93.1 a 1,1 0 0 1 0,1 l -54.74,94.01 a 1,1 0 0 1 -1.65,0 L 0.13,95.48 a 1,1 0 0 1 0,-1 L 54.87,0.47 a 1,1 0 0 1 1.65,0 z" id="path1261" style="fill:#808080"/></g></g></svg>