<?xml version="1.0" encoding="utf-8"?>
<svg xmlns="http://www.w3.org/2000/svg" viewBox="0 0 512 512" width="24px" height="24px"><g id="object-0" transform="matrix(0.9999999999999999, 0, 0, 0.9999999999999999, 0, -7.105427357601002e-15)"><path d="M512 256c0 141.39-114.61 256-256 256S0 397.39 0 256 114.61 0 256 0s256 114.61 256 256z" style="fill: #808080"/><path d="M290.14 256H217.6v-76.8h72.54c21.2 0 38.4 17.19 38.4 38.4 0 20.93-16.76 37.96-37.58 38.39-.27.01-.55.01-.82.01zm0-128H166.4v256h51.2v-76.8h72.54c49.47-.01 89.6-40.13 89.6-89.6 0-49.48-40.13-89.6-89.6-89.6z" style="fill: #000000"/></g></svg>