<?xml version="1.0" encoding="utf-8"?>
<svg xmlns="http://www.w3.org/2000/svg" viewBox="-1.7697 44.9343 5.4634 6.3499" width="20.649338574344px" height="24px" preserveAspectRatio="none"><defs><style>.cls-1{fill:#e31337;}</style></defs><g transform="matrix(1, 0, 0, 1, 1.3118300437927246, -0.5161290168762207)" id="object-0"><path d="m 1.1693867,48.393579 c -0.0273,-0.01311 -0.0551,-0.02573 -0.0833,-0.03781 -0.049,-0.903119 -0.54249002,-1.420154 -1.37111002,-1.425446 -0.004,0 -0.007,0 -0.0112,0 -0.49562,0 -0.90780998,0.211554 -1.16151998,0.596517 l 0.45571,0.312608 c 0.18952998,-0.287552 0.48696998,-0.348853 0.70602998,-0.348853 0.003,0 0.005,0 0.008,0 0.27283,0.0017 0.47871,0.08106 0.61196,0.23576 0.097,0.112623 0.16183,0.268254 0.19394,0.464667 -0.24189,-0.04111 -0.5035,-0.05375 -0.78316,-0.03772 -0.78780998,0.04538 -1.29426998,0.504845 -1.26025998,1.143287 0.0173,0.32385 0.1786,0.602456 0.45427,0.784457 0.23307998,0.153855 0.53326998,0.229096 0.84525998,0.212064 0.41201,-0.02259 0.73523,-0.179785 0.96072,-0.467221 0.17125,-0.218283 0.27957002,-0.501155 0.32739002,-0.857581 0.19635,0.118499 0.34188,0.274439 0.42224,0.461895 0.13666,0.318659 0.14463,0.842302 -0.28264,1.269207 -0.37435002,0.373988 -0.82434002,0.535782 -1.50440002,0.540775 -0.75436998,-0.0056 -1.32488998,-0.247518 -1.69582998,-0.719071 -0.34735,-0.441556 -0.52687,-1.079334 -0.53356,-1.89564 0.007,-0.816312 0.18621,-1.454096 0.53356,-1.89565 0.37094,-0.471546 0.94145,-0.713471 1.69581998,-0.719077 0.75984,0.0056 1.34030002,0.248737 1.72544002,0.72256 0.18884,0.232357 0.33122,0.524562 0.42508,0.865263 l 0.53403,-0.142482 c -0.11377,-0.419364 -0.29279,-0.780735 -0.53641,-1.080432 -0.49374,-0.607461 -1.21586002,-0.918727 -2.14628002,-0.925181 h -0.004 c -0.92852998,0.0064 -1.64254998,0.318883 -2.12223998,0.928663 -0.42685,0.542631 -0.64703,1.297662 -0.65443,2.244103 v 0.0022 0.0022 c 0.007,0.946431 0.22758,1.701486 0.65443,2.244113 0.47969,0.609765 1.19371,0.922238 2.12223998,0.928654 h 0.004 c 0.82551,-0.0057 1.40740002,-0.221853 1.88676002,-0.700782 0.62716,-0.626566 0.60828,-1.411948 0.40157,-1.894085 -0.1483,-0.345744 -0.43104,-0.62656 -0.81766,-0.81203 z m -1.42533002,1.340072 c -0.34528,0.01945 -0.70399,-0.135533 -0.72168,-0.467485 -0.0131,-0.24613 0.17516,-0.520767 0.74287,-0.553482 0.065,-0.0038 0.12881,-0.0056 0.19149,-0.0056 0.20621,0 0.39912,0.02003 0.57451,0.05837 -0.0654,0.816967 -0.44913,0.949623 -0.78719,0.968177 z" style="clip-rule: evenodd; fill-rule: evenodd; stroke-width: 0.0330728; shape-rendering: geometricprecision; text-rendering: geometricprecision; fill: #808080"/></g></svg>