<?xml version="1.0" encoding="utf-8"?>
<svg xmlns="http://www.w3.org/2000/svg" viewBox="1.9998 1.9999 20.006 20.0079" width="23.997720900244px" height="24px"><path fill="#808080" d="M10.59 20.77a15.34 15.34 0 0 1-2.38-5.06H3.95a8.94 8.94 0 0 0 2.66 3.4 8.71 8.71 0 0 0 3.98 1.66Zm-7.1-6.16h4.49a13.2 13.2 0 0 1-.23-2.6 15.84 15.84 0 0 1 .23-2.62H3.5A8.24 8.24 0 0 0 3.1 12a9.14 9.14 0 0 0 .39 2.6Zm.46-6.33H8.2a13.03 13.03 0 0 1 2.38-5.05 8.81 8.81 0 0 0-6.64 5.06Zm5.4 0h5.3c-.27-1-.61-1.9-1.04-2.7-.42-.82-.96-1.64-1.61-2.48a12.6 12.6 0 0 0-2.65 5.18Zm6.44 0h4.26a8.9 8.9 0 0 0-2.7-3.4 8.29 8.29 0 0 0-3.94-1.65c.45.62.89 1.38 1.32 2.28.43.9.78 1.83 1.06 2.77ZM12 22a10.14 10.14 0 0 1-9.21-6.11A9.69 9.69 0 0 1 2 12c0-1.38.26-2.68.79-3.9A10.15 10.15 0 0 1 8.11 2.8 9.69 9.69 0 0 1 12 2c1.38 0 2.68.26 3.9.79a10.15 10.15 0 0 1 5.31 5.32 9.68 9.68 0 0 1 .71 5.13h-1.14a5.86 5.86 0 0 0 .1-1.24 9.13 9.13 0 0 0-.38-2.6h-4.48a13.23 13.23 0 0 1 .22 3.21c0 .2-.02.42-.04.63h-1.1a10.48 10.48 0 0 0 .04-1.24 15.58 15.58 0 0 0-.23-2.6H9.09a13.37 13.37 0 0 0-.23 2.6 15.58 15.58 0 0 0 .23 2.6h4.15v1.12H9.35c.3 1.04.66 1.98 1.09 2.83.43.84.95 1.62 1.56 2.35.23-.28.45-.57.65-.87.2-.3.4-.6.59-.92v2.81A5.23 5.23 0 0 1 12 22Zm8.83-.37L17 17.79v3.27h-1.11v-5.17h5.17V17h-3.3l3.84 3.83-.77.8Z" id="object-0"/></svg>